<svg xmlns="http://www.w3.org/2000/svg" xml:space="preserve" baseProfile="tiny" overflow="visible" viewBox="0 0 1200 353.57">
<!--  DEFT-->
  <path fill="#F06449 " d="M441.14 219.92c0 9.32-3.27 17.28-9.8 23.9a32.06 32.06 0 0 1-23.67 9.91H374.2V112.41h33.47c9.31 0 17.22 3.3 23.72 9.91a32.73 32.73 0 0 1 9.75 23.78v73.82zm-45.64 12.74h12.85c3.38 0 6.23-1.22 8.56-3.67a12.08 12.08 0 0 0 3.5-8.62v-73.93c0-3.38-1.19-6.27-3.56-8.68-2.36-2.4-5.2-3.6-8.5-3.6H395.5v98.5zM459.85 253.73V112.41h60.63v21.4h-39.34v38.55h28.74v21.41h-28.74v38.55h39.34v21.41h-60.63zM556.43 253.73h-21.3V112.41h60.63v21.4h-39.33v38.55h28.74v21.41h-28.74v59.96zM633.06 133.93h-22.65v-21.41h66.5v21.41h-22.55v119.8h-21.3v-119.8z"/>
  <!--  Vision-->
  <path fill="#F06449" d="m726.62 253.73-25.25-141.21h22.33l17.72 110.07 17.86-110.07h22.33l-25.7 141.21h-29.3zM820.72 253.73h-21.3V112.52h21.3v141.21zM908.96 218.57c.15 9.84-2.4 18.26-7.66 25.24-3.46 4.74-8.34 8.08-14.65 10.03a39.94 39.94 0 0 1-11.84 1.58c-8.34 0-15.25-2.06-20.73-6.2-4.59-3.38-8.21-7.98-10.88-13.8-2.66-5.82-4.22-12.5-4.67-20l20.28-1.47c.9 8.23 3.08 14.2 6.54 17.9 2.55 2.79 5.48 4.11 8.79 3.96 4.65-.15 8.37-2.44 11.16-6.88 1.42-2.18 2.14-5.3 2.14-9.36 0-5.87-2.67-11.7-8-17.48l-18.94-17.94c-7.06-6.84-12.06-12.97-14.99-18.39a42.51 42.51 0 0 1-4.73-19.85c0-12.86 4.32-22.6 12.96-29.22 5.33-3.98 11.95-5.98 19.83-5.98 7.6 0 14.1 1.7 19.5 5.08 4.2 2.63 7.6 6.3 10.2 11.04 2.6 4.73 4.15 10.18 4.68 16.34l-20.4 3.72c-.6-5.78-2.25-10.3-4.96-13.52-1.95-2.33-4.77-3.5-8.45-3.5-3.91 0-6.88 1.74-8.9 5.19-1.66 2.78-2.48 6.24-2.48 10.37 0 6.46 2.77 13.03 8.33 19.72 2.1 2.56 5.26 5.56 9.47 9.02 4.96 4.13 8.23 7.02 9.8 8.67 5.27 5.26 9.32 10.45 12.18 15.56a59.98 59.98 0 0 1 3.27 6.64c2.02 5.04 3.08 9.55 3.15 13.53zM947.95 253.73h-21.3V112.52h21.3v141.21zM1000.47 110.72c9.4 0 17.37 3.3 23.95 9.91a32.67 32.67 0 0 1 9.86 23.9v77.08c0 9.4-3.3 17.38-9.92 23.95a32.65 32.65 0 0 1-23.89 9.86c-9.4 0-17.36-3.3-23.9-9.92a32.75 32.75 0 0 1-9.8-23.89v-77.09c0-9.39 3.3-17.37 9.92-23.94 6.61-6.58 14.54-9.86 23.78-9.86zm11.6 33.35c0-3.38-1.18-6.25-3.54-8.62a11.74 11.74 0 0 0-8.62-3.55c-3.38 0-6.28 1.18-8.68 3.55a11.64 11.64 0 0 0-3.6 8.62v77.32c0 3.38 1.2 6.25 3.6 8.62 2.4 2.36 5.3 3.55 8.68 3.55s6.25-1.19 8.62-3.55a11.73 11.73 0 0 0 3.55-8.62v-77.32zM1076.9 112.4l28.26 94.98v-94.97h21.3v141.32h-22.87l-29.3-90.5v90.5h-21.3V112.41h23.9z"/>
  <!--  D & | -->
  <path fill="#616163" d="M329.54 71.27h5.2v223.6h-5.2zM105.85 176.19v52.56h66.49s23.95-1.21 31.86-15.42l-14-21.72s-6.7 15.63-18.27 15.63h-39.37v-31.05h-26.71z"/>
  <!--V & circle-->
  <path fill="#F06449" d="m299.8 167.62-10.32 14.78.02 1c0 56.94-46.32 103.26-103.25 103.26S83 240.34 83 183.4c0-6.04.55-11.95 1.55-17.71h78.26c18.47 0 27.59 16.17 27.59 16.17l26.81 39.2c5.92 10.8 17.21 9.37 17.21 9.37 7.94 0 15.54-10.43 15.54-10.43l44.43-62.77-.03-.15 2.55-3.65c-13.21-48.73-57.8-84.69-110.66-84.69-45.1 0-84.17 26.18-102.89 64.13h12.9c17.72-31.44 51.4-52.72 90-52.72 40.1 0 74.92 23 92 56.5l-45.36 65.81-20.9-32.9c-14-26.23-42.7-26.23-42.7-26.23H80.28v.02h-1.44a114.09 114.09 0 0 0-7.23 40.05c0 63.22 51.43 114.65 114.65 114.65 63.23 0 114.66-51.43 114.66-114.65 0-5.36-.4-10.63-1.11-15.8z"/>
</svg>
