<?xml version="1.0" encoding="UTF-8"?>
<svg id="Layer_1" data-name="Layer 1" xmlns="http://www.w3.org/2000/svg" viewBox="0 0 326.32 326.32">
  <defs>
    <style>
      .cls-1 {
        fill: #2968cc;
        fill-rule: evenodd;
      }
    </style>
  </defs>
  <path id="FACEBOOK" class="cls-1" d="M326.32,101.97v122.37c0,56.32-45.66,101.97-101.97,101.97h-35.69v-114.58h38.02l7.23-47.17h-45.25v-30.61c0-12.89,6.31-25.49,26.59-25.49h20.58v-40.15s-18.68-3.19-36.53-3.19c-37.26,0-61.63,22.58-61.63,63.49v35.95h-41.44v47.17h41.44v114.58h-35.69C45.66,326.32,0,280.66,0,224.34v-122.37C0,45.66,45.66,0,101.97,0h122.37c56.32,0,101.97,45.66,101.97,101.97Z"/>
</svg>